<svg width="181" height="36" viewBox="0 0 181 36" fill="none" xmlns="http://www.w3.org/2000/svg">
<path d="M7.37479 17.9793C7.70953 17.6895 7.52736 17.3073 7.32734 17.0475C7.21763 16.9062 7.10384 16.8031 7.0671 16.7715L5.63428 17.9752L6.50887 18.7059L7.37479 17.9793Z" fill="#A93439"/>
<path d="M7.24561 24.1772C7.28286 24.2139 7.32521 24.2425 7.37522 24.2645C7.42522 24.2859 7.4788 24.2966 7.53391 24.2966C7.59208 24.2966 7.64464 24.2859 7.69311 24.2645C7.74159 24.2425 7.78547 24.2139 7.82221 24.1772C7.85844 24.1359 7.88956 24.0961 7.90997 24.0486C7.9314 23.9986 7.94212 23.945 7.94212 23.8904V22.2836V20.6819C7.94212 20.4487 7.89517 20.2278 7.81098 20.0303C7.7273 19.8308 7.60585 19.6511 7.45226 19.497L1.69749 14.672C1.66126 14.6301 1.61585 14.6005 1.56686 14.5806C1.51737 14.5602 1.46532 14.5449 1.4097 14.5449C1.35153 14.5449 1.29693 14.5602 1.25152 14.5806C1.20151 14.6005 1.15865 14.6301 1.12038 14.672C1.08466 14.7057 1.052 14.7495 1.03108 14.7975C1.0122 14.848 1.00098 14.9021 1.00098 14.9582V18.1627C1.00098 18.3933 1.04894 18.6122 1.1316 18.8138C1.21478 19.0113 1.33928 19.1965 1.49338 19.346L7.24561 24.1772Z" fill="#E2231A"/>
<path d="M2.74462 20.4004L1.57254 21.3832C1.44906 21.4913 1.39242 21.6107 1.38477 21.7312V21.7842L1.38834 21.8041C1.38834 21.822 1.38987 21.8353 1.38987 21.8353C1.3914 21.849 1.39242 21.8562 1.39599 21.8633C1.4016 21.899 1.41079 21.9327 1.42457 21.97C1.42559 21.9741 1.42865 21.9781 1.42865 21.9781C1.44345 22.0179 1.45977 22.0526 1.47406 22.0858L1.48325 22.1006C1.50111 22.1343 1.51948 22.1685 1.54091 22.2001C1.54397 22.2042 1.54397 22.2083 1.54397 22.2083C1.56999 22.244 1.59295 22.2756 1.61541 22.3098C1.6399 22.3399 1.66541 22.3685 1.68786 22.3925C1.69348 22.4006 1.69909 22.4078 1.69909 22.4078C1.72511 22.4384 1.74501 22.4593 1.76593 22.4762C1.82512 22.5399 1.87054 22.5797 1.88278 22.5889L3.61667 21.1306L2.74462 20.4004Z" fill="#A93439"/>
<path d="M7.81407 27.7963C7.72681 27.5968 7.60588 27.4156 7.45229 27.2631L1.87508 22.585C1.85927 22.5696 1.82151 22.5334 1.77558 22.487L1.7664 22.4758C1.74548 22.4589 1.72558 22.437 1.70516 22.413C1.70516 22.413 1.69394 22.4002 1.68731 22.3921C1.66536 22.3681 1.64036 22.339 1.61587 22.3104C1.59342 22.2752 1.57046 22.2436 1.54596 22.2094C1.54596 22.2094 1.54443 22.2038 1.54035 22.1997C1.51994 22.1676 1.50004 22.1339 1.48371 22.1002L1.47453 22.0854C1.45922 22.0527 1.44238 22.0175 1.43064 21.9839C1.43064 21.9839 1.42503 21.9731 1.42503 21.9691C1.41125 21.9313 1.40207 21.9002 1.39645 21.8645L1.39492 21.8594C1.39492 21.8594 1.38982 21.8466 1.38982 21.8425C1.38982 21.8425 1.3888 21.8226 1.3888 21.8119L1.38523 21.7843V21.7308C1.39492 21.6119 1.44952 21.492 1.57301 21.3838L1.52453 21.4277C1.51586 21.4328 1.50922 21.442 1.49902 21.4527C1.43472 21.5185 1.33675 21.6343 1.25307 21.8247L1.25154 21.8287C1.15102 22.0502 1.05815 22.3671 1.02192 22.8085C1.01478 22.8605 1.01273 22.9151 1.00916 22.9697C1.00661 23.0274 1.00508 23.086 1.00355 23.1447C1.00355 23.16 1.00049 26.9033 1.00049 26.9033C1.00049 27.1355 1.05049 27.3534 1.13367 27.5549C1.2148 27.7514 1.34339 27.9346 1.4934 28.0841L7.24818 32.9158C7.28441 32.9525 7.32778 32.9796 7.37524 33.0025C7.42524 33.0224 7.48035 33.0342 7.53495 33.0342C7.59159 33.0342 7.64568 33.0229 7.69619 33.0025C7.74263 32.9796 7.78702 32.9525 7.82529 32.9158C7.86101 32.876 7.89112 32.8352 7.91204 32.7826C7.93347 32.7346 7.94214 32.6846 7.94214 32.6275V28.4489C7.94214 28.2157 7.89469 27.9953 7.81407 27.7963Z" fill="#E2231A"/>
<path d="M7.81154 11.8051C7.72683 11.6045 7.6059 11.4239 7.45231 11.2739L1.69702 6.44422C1.66079 6.40391 1.61538 6.37635 1.56793 6.35645C1.5169 6.33655 1.46587 6.32227 1.40923 6.32227C1.3531 6.32227 1.29646 6.33655 1.25105 6.35645C1.20002 6.37635 1.15767 6.40391 1.11991 6.44422C1.08419 6.48096 1.05154 6.52433 1.03113 6.57077C1.01174 6.62128 1 6.67384 1 6.72946V8.81849V10.908C1 11.1397 1.04848 11.3591 1.13114 11.5632C1.21431 11.7622 1.33882 11.9403 1.49292 12.0898L7.06706 16.7725C7.08441 16.7888 7.12268 16.822 7.17013 16.8705C7.21402 16.9179 7.27219 16.9771 7.32729 17.0486C7.42629 17.1787 7.52069 17.3369 7.5513 17.5017C7.57835 17.6655 7.54161 17.8364 7.37475 17.9808C7.37475 17.9808 7.54722 17.8568 7.6906 17.5359L7.69418 17.5292C7.79419 17.3052 7.88655 16.9919 7.92328 16.5475C7.92686 16.4975 7.93298 16.4419 7.93451 16.3867C7.93604 16.3316 7.94012 16.2755 7.94012 16.2127V14.3192C7.94165 13.3864 7.94165 12.4546 7.94165 12.4546C7.94216 12.224 7.89471 12.0031 7.81154 11.8051Z" fill="#E2231A"/>
<path d="M9.69727 24.2412V27.167L10.8199 26.2236V23.3125L10.7454 23.3722L9.79677 24.1697C9.76615 24.1999 9.734 24.2213 9.69727 24.2412Z" fill="#A93439"/>
<path d="M10.8213 16.0508L10.7616 16.0977L9.79617 16.9101C9.77066 16.9366 9.73902 16.9596 9.70534 16.9764L9.69922 16.9805V19.3961L10.8213 18.4536V16.0508Z" fill="#A93439"/>
<path d="M15.8126 17.0863C15.9509 16.9057 16.0438 16.6873 16.0438 16.3867V6.71108C16.0438 6.65393 16.0346 6.59831 16.0152 6.55086C15.9927 6.50085 15.9662 6.45799 15.9285 6.42074C15.8907 6.38298 15.8458 6.35491 15.7978 6.33246C15.7473 6.31154 15.6942 6.2998 15.6386 6.2998C15.583 6.2998 15.5294 6.31154 15.4799 6.33246C15.4299 6.35491 15.3865 6.38298 15.3493 6.42074L9.58891 11.253C9.43787 11.4055 9.31388 11.5877 9.23019 11.7857C9.146 11.9852 9.10059 12.2046 9.10059 12.4378V16.6204C9.10059 16.6776 9.11283 16.7301 9.13069 16.7791C9.15263 16.8291 9.18019 16.872 9.21846 16.9103C9.25571 16.9455 9.30163 16.9771 9.34704 16.9975C9.39756 17.0174 9.45165 17.0302 9.50778 17.0302C9.56493 17.0302 9.61851 17.0174 9.66647 16.9975C9.68025 16.9914 9.693 16.9812 9.70576 16.9771C9.73842 16.9603 9.77108 16.9373 9.79761 16.9103L10.761 16.0974L14.1915 13.22C14.2272 13.1853 14.2701 13.1552 14.3211 13.1338C14.3701 13.1113 14.4221 13.1027 14.4808 13.1027C14.5354 13.1027 14.5905 13.1113 14.637 13.1328C14.687 13.1552 14.7319 13.1818 14.7661 13.22C14.8023 13.2578 14.8344 13.3007 14.8554 13.3501C14.8742 13.3976 14.8885 13.4522 14.8885 13.5083V14.2691C14.8885 14.4998 14.8385 14.7233 14.7564 14.9202C14.6696 15.1238 14.5482 15.3034 14.3971 15.453L10.8207 18.4533V18.4564L9.69811 19.3963L9.58891 19.4881C9.43787 19.6382 9.31388 19.8224 9.23019 20.0193C9.146 20.2178 9.10059 20.4398 9.10059 20.6709V23.8779C9.10059 23.9366 9.11283 23.9917 9.13069 24.0412C9.15263 24.0912 9.18274 24.1321 9.21846 24.1708C9.25571 24.2076 9.30163 24.2367 9.34704 24.2576C9.39756 24.2775 9.45165 24.2897 9.50778 24.2897C9.56493 24.2897 9.61851 24.2775 9.66647 24.2576C9.66647 24.2576 9.68688 24.2464 9.69811 24.2418C9.73434 24.2219 9.76699 24.1989 9.79761 24.1708L10.7462 23.3733L14.1915 20.4826C14.2272 20.4433 14.2701 20.4148 14.3211 20.3964C14.3701 20.3755 14.4221 20.3637 14.4808 20.3637C14.5354 20.3637 14.5905 20.3755 14.637 20.3954C14.687 20.4153 14.7319 20.4439 14.7686 20.4821C14.8023 20.5199 14.8344 20.5617 14.8554 20.6133C14.8742 20.6623 14.8885 20.7163 14.8885 20.7715V22.039C14.8885 22.2701 14.8406 22.4885 14.7564 22.6916C14.6696 22.8936 14.5482 23.0733 14.3971 23.2228L9.58891 27.2569C9.43787 27.4105 9.31388 27.5922 9.23019 27.7912C9.146 27.9922 9.10059 28.2116 9.10059 28.4423V32.6259C9.10059 32.6841 9.11283 32.7346 9.13069 32.7831C9.15263 32.8346 9.18274 32.8785 9.21846 32.9158C9.25571 32.9535 9.30163 32.9796 9.34704 33.0025C9.39756 33.0214 9.45165 33.0336 9.50778 33.0336C9.56493 33.0336 9.61851 33.0219 9.66647 33.0025C9.71699 32.9796 9.75934 32.9535 9.79761 32.9158L15.5544 28.0805C15.7075 27.9279 15.83 27.7473 15.9152 27.5437C15.9994 27.3462 16.0438 27.1258 16.0438 26.8967V17.8094C16.0397 17.7634 16.0274 17.7165 16.0086 17.6782C15.9887 17.6369 15.9631 17.6017 15.9305 17.5716C15.8948 17.5359 15.8509 17.5047 15.7999 17.4843C15.7524 17.4649 15.6983 17.4522 15.6407 17.4522C15.5876 17.4522 15.5294 17.4619 15.4825 17.4823C15.4345 17.5012 15.3962 17.5231 15.3962 17.5231C15.5458 17.3705 15.6784 17.2659 15.8126 17.0863Z" fill="#E2231A"/>
<path d="M7.92539 4.361C7.91416 4.33498 7.89681 4.31508 7.87487 4.29671L5.18118 2.04286C5.16536 2.03062 5.14495 2.01837 5.1225 2.00714C5.09953 2.00306 5.08014 2 5.05718 2C5.04289 2 5.02912 2 5.01789 2.00306C5.00309 2.00612 4.98779 2.00714 4.98779 2.00714C4.94288 2.03215 4.91431 2.05868 4.89441 2.08828C4.87604 2.11736 4.86328 2.15053 4.86328 2.19084V3.87931C4.86328 3.90788 4.87195 3.93391 4.88063 3.95891C4.89441 3.98391 4.91176 4.01045 4.93319 4.02473L5.78482 4.72533V6.30001L5.46437 6.03824C5.44754 6.02344 5.42661 6.01426 5.40773 6.00457C5.38477 5.99895 5.36436 5.99487 5.33987 5.99487C5.32609 5.99487 5.31078 5.99793 5.29803 5.99997C5.28527 6.00252 5.27098 6.00508 5.27098 6.00508C5.22557 6.02906 5.19801 6.05559 5.17965 6.08264C5.15872 6.11529 5.14903 6.14999 5.14903 6.18673V7.75733C5.14903 7.78794 5.15413 7.8155 5.16893 7.84203C5.17965 7.86448 5.19546 7.88847 5.21843 7.90428L7.15641 9.52183C7.17223 9.53611 7.19315 9.54734 7.21459 9.55602C7.235 9.56265 7.25592 9.56571 7.27939 9.56571C7.29163 9.56571 7.3049 9.56418 7.32021 9.56265C7.33297 9.5601 7.34623 9.55295 7.36052 9.54734C7.3942 9.53152 7.42022 9.50754 7.44114 9.4759C7.46104 9.44631 7.47278 9.41161 7.47278 9.37385V7.81091C7.47278 7.78284 7.46513 7.75427 7.45237 7.73181C7.44114 7.70324 7.42175 7.68181 7.40185 7.66344L7.03344 7.34963V5.79178L7.62586 6.2898C7.64423 6.30205 7.66413 6.31634 7.68403 6.32297C7.70597 6.32858 7.72791 6.33522 7.74985 6.33522C7.76567 6.33522 7.77996 6.3296 7.79272 6.32858C7.80598 6.32603 7.81976 6.32195 7.83252 6.31634C7.8667 6.30001 7.89426 6.27194 7.91416 6.24439C7.93151 6.21224 7.94222 6.17857 7.94222 6.14081V4.44417C7.94222 4.41458 7.93661 4.38702 7.92539 4.361Z" fill="#E2231A"/>
<path d="M12.0851 4.05626C12.1066 4.03789 12.1239 4.0134 12.1367 3.98942C12.1489 3.96289 12.1515 3.93788 12.1515 3.9088V2.20808C12.1515 2.17134 12.1433 2.13358 12.1239 2.10552C12.1035 2.07439 12.077 2.05143 12.0418 2.03255C12.029 2.02592 12.0157 2.02133 12.002 2.01928C12.002 2.01928 11.9719 2.01367 11.956 2.01367C11.9366 2.01367 11.9142 2.01877 11.8933 2.02592C11.8729 2.03255 11.8494 2.04429 11.8336 2.05908L9.16998 4.3063C9.146 4.32518 9.12916 4.35069 9.11794 4.37263C9.10467 4.40018 9.10059 4.42774 9.10059 4.45835V9.77277C9.10059 9.81104 9.11283 9.84676 9.12916 9.87686C9.15008 9.90595 9.17764 9.93197 9.21029 9.94881C9.2256 9.95698 9.23938 9.958 9.25265 9.96157C9.25265 9.96157 9.27867 9.96616 9.29296 9.96616C9.31694 9.96616 9.33684 9.96157 9.35827 9.95698C9.3797 9.94881 9.3996 9.93606 9.41746 9.92075L12.0851 7.68272C12.1066 7.66333 12.1239 7.64139 12.1367 7.61588C12.1489 7.59036 12.1515 7.56077 12.1515 7.53322V5.94986C12.1515 5.91159 12.1433 5.87332 12.1239 5.84322C12.1035 5.81413 12.077 5.78555 12.0418 5.77433C12.029 5.76974 12.0157 5.76361 12.002 5.75647C11.9866 5.75647 11.9719 5.75443 11.956 5.75443C11.9366 5.75443 11.9142 5.75647 11.8933 5.76565C11.8729 5.77433 11.8494 5.78556 11.8336 5.80188L10.366 7.03622V5.4993L12.0851 4.05626Z" fill="#E2231A"/>
<path d="M21.02 23.8889L29.0445 13.3876H21.2721V10.4424H33.547V12.9764L25.5231 23.4776H33.547V26.4219H21.02V23.8889Z" fill="black"/>
<path d="M39.3668 14.1865H35.7949V26.4222H39.3668V14.1865Z" fill="black"/>
<path d="M41.8154 14.1862H45.3873V16.3548C46.0665 14.871 47.1227 13.8887 49.0347 13.9805V17.4963H48.8836C46.6701 17.4963 45.3873 18.7061 45.3873 21.2855V26.4218H41.8154V14.1862Z" fill="black"/>
<path d="M49.437 20.4874V20.1215C49.437 15.944 51.8771 13.958 54.5688 13.958C56.3797 13.958 57.4359 14.8484 58.2156 15.7613V14.1866H61.7875V26.4223H58.2156V24.7328C57.4359 25.7605 56.3547 26.6504 54.5688 26.6504C51.9021 26.6504 49.437 24.6644 49.437 20.4874ZM58.2661 20.4185V20.1904C58.2661 18.0906 57.1344 16.789 55.625 16.789C54.1156 16.789 53.0089 18.0906 53.0089 20.1904V20.4185C53.0089 22.5187 54.1156 23.8199 55.625 23.8199C57.1344 23.8199 58.2661 22.5187 58.2661 20.4185Z" fill="black"/>
<path d="M63.4546 20.4874V20.1215C63.4546 15.944 65.8947 13.958 68.5863 13.958C70.3973 13.958 71.4535 14.8484 72.2332 15.7613V14.1866H75.8051V26.4223H72.2332V24.7328C71.4535 25.7605 70.3723 26.6504 68.5863 26.6504C65.9197 26.6504 63.4546 24.6644 63.4546 20.4874ZM72.2837 20.4185V20.1904C72.2837 18.0906 71.1519 16.789 69.6426 16.789C68.1332 16.789 67.0264 18.0906 67.0264 20.1904V20.4185C67.0264 22.5187 68.1332 23.8199 69.6426 23.8199C71.1519 23.8199 72.2837 22.5187 72.2837 20.4185Z" fill="black"/>
<path d="M78.3461 23.3631V16.9256H76.9878V14.186H78.3461V11.0586H81.918V14.186H84.5841V16.9256H81.918V22.7013C81.918 23.4091 82.2951 23.7509 83.0247 23.7509C83.6034 23.7509 84.081 23.6142 84.5591 23.4091V25.9885C83.8549 26.3543 82.9997 26.6283 81.918 26.6283C79.83 26.6283 78.3461 25.9201 78.3461 23.3631Z" fill="black"/>
<path d="M39.564 10.9868C39.564 13.5993 35.5967 13.5993 35.5967 10.9868C35.5967 8.3742 39.564 8.3742 39.564 10.9868Z" fill="black"/>
<path d="M93.7921 12.9095H89.165V10.4434H101.362V12.9095H96.7093V26.429H93.7921V12.9095Z" fill="black"/>
<path d="M99.5518 20.4918V20.3321C99.5518 16.7015 101.966 14.0977 105.236 14.0977C108.858 14.0977 110.769 16.8378 110.769 20.4693C110.769 20.6291 110.769 20.9944 110.743 21.3592H102.394C102.646 23.3921 104.029 24.4882 105.764 24.4882C107.022 24.4882 107.952 23.9861 108.832 23.209L110.316 24.8081C109.109 25.9726 107.65 26.7033 105.638 26.7033C102.218 26.7033 99.5518 24.3055 99.5518 20.4918ZM107.977 19.5784C107.851 17.6369 106.895 16.2673 105.235 16.2673C103.676 16.2673 102.569 17.5231 102.368 19.5784H107.977Z" fill="black"/>
<path d="M112.604 9.94141H115.446V19.6472L119.998 14.3261H123.368L118.942 19.2583L123.494 26.4296H120.224L116.98 21.2453L115.446 22.9578V26.4296H112.604V9.94141Z" fill="black"/>
<path d="M124.65 14.3257H127.492V16.0841C128.272 15.034 129.328 14.0977 131.139 14.0977C133.704 14.0977 135.238 15.7188 135.238 18.3227V26.4292H132.371V19.0763C132.371 17.3634 131.516 16.4275 130.007 16.4275C128.549 16.4275 127.492 17.4322 127.492 19.0993V26.4292H124.65V14.3257H124.65Z" fill="black"/>
<path d="M136.974 20.5137V20.3091C136.974 16.747 139.59 14.0977 143.136 14.0977C146.656 14.0977 149.223 16.7005 149.223 20.2862V20.4908C149.223 24.0534 146.631 26.7027 143.111 26.7027C139.565 26.7027 136.974 24.0999 136.974 20.5137ZM146.405 20.4688V20.3311C146.405 18.0706 145.022 16.3576 143.111 16.3576C141.099 16.3576 139.816 18.0706 139.816 20.3086V20.4459C139.816 22.7063 141.2 24.4188 143.136 24.4188C145.122 24.4193 146.405 22.7298 146.405 20.4688Z" fill="black"/>
<path d="M154.101 9.94141H151.234V26.4296H154.101V9.94141Z" fill="black"/>
<path d="M156.112 20.5137V20.3091C156.112 16.747 158.728 14.0977 162.274 14.0977C165.794 14.0977 168.36 16.7005 168.36 20.2862V20.4908C168.36 24.0534 165.77 26.7027 162.248 26.7027C158.703 26.7027 156.112 24.0999 156.112 20.5137ZM165.544 20.4688V20.3311C165.544 18.0706 164.16 16.3576 162.249 16.3576C160.238 16.3576 158.954 18.0706 158.954 20.3086V20.4459C158.954 22.7063 160.338 24.4188 162.275 24.4188C164.261 24.4193 165.544 22.7298 165.544 20.4688Z" fill="black"/>
<path d="M168.311 29.8316V27.7763C168.537 27.7992 168.789 27.8222 169.015 27.8222C169.87 27.8222 170.373 27.3655 170.373 26.3837V14.3262H173.215V26.5894C173.215 28.8504 171.957 29.9459 169.643 29.9459C169.065 29.9459 168.738 29.9 168.311 29.8316Z" fill="black"/>
<path d="M178.824 14.3262H175.957V26.4297H178.824V14.3262Z" fill="black"/>
<path d="M177.39 10.0547C178.279 10.0547 179 10.7757 179 11.6651C179 12.5545 178.279 13.2755 177.39 13.2755C176.5 13.2755 175.779 12.5545 175.779 11.6651C175.779 10.7757 176.5 10.0547 177.39 10.0547Z" fill="black"/>
<path d="M171.806 10.0547C172.695 10.0547 173.416 10.7757 173.416 11.6651C173.416 12.5545 172.695 13.2755 171.806 13.2755C170.916 13.2755 170.195 12.5545 170.195 11.6651C170.195 10.7757 170.916 10.0547 171.806 10.0547Z" fill="black"/>
</svg>
